
<svg width="592" height="114" viewBox="0 0 592 114" fill="none" xmlns="http://www.w3.org/2000/svg">
    <path d="M26.304 90.96C19.136 90.96 13.792 89.232 10.272 85.776C6.816 82.256 5.088 77.456 5.088 71.376C5.088 69.264 5.28 67.12 5.664 64.944C6.432 60.336 7.648 54.64 9.312 47.856C11.296 39.856 14.752 33.52 19.68 28.848C24.672 24.176 31.328 21.84 39.648 21.84C44.768 21.84 48.992 22.672 52.32 24.336C55.648 25.936 58.048 28.048 59.52 30.672C61.056 33.296 61.824 36.176 61.824 39.312C61.824 40.4 61.728 41.488 61.536 42.576C61.344 43.856 60.736 44.496 59.712 44.496H57.504C56.864 44.496 56.352 44.336 55.968 44.016C55.584 43.696 55.424 43.184 55.488 42.48C55.552 41.968 55.584 41.2 55.584 40.176C55.584 31.792 50.272 27.6 39.648 27.6C33.568 27.6 28.416 29.296 24.192 32.688C19.968 36.08 16.992 41.296 15.264 48.336C13.92 53.584 12.768 58.96 11.808 64.464C11.36 67.28 11.136 69.456 11.136 70.992C11.136 80.464 16.192 85.2 26.304 85.2C31.808 85.2 36.448 84.08 40.224 81.84C44.064 79.6 47.136 75.76 49.44 70.32C49.952 68.976 50.752 68.304 51.84 68.304H54.048C54.624 68.304 55.072 68.464 55.392 68.784C55.584 69.04 55.68 69.328 55.68 69.648C55.68 69.84 55.648 70.032 55.584 70.224C53.792 75.92 50.624 80.816 46.08 84.912C41.536 88.944 34.944 90.96 26.304 90.96ZM67.5255 90C66.8855 90 66.4055 89.808 66.0855 89.424C65.8295 89.168 65.7015 88.816 65.7015 88.368C65.7015 88.24 65.7335 88.08 65.7975 87.888L79.1415 25.008C79.2695 24.368 79.5575 23.856 80.0055 23.472C80.5175 23.024 81.0935 22.8 81.7335 22.8H119.174C119.814 22.8 120.294 22.992 120.614 23.376C120.87 23.632 120.998 23.984 120.998 24.432C120.998 24.624 120.966 24.816 120.902 25.008L120.614 26.448C120.486 27.088 120.166 27.6 119.654 27.984C119.206 28.368 118.662 28.56 118.022 28.56H84.5175L79.2375 53.04H110.63C111.27 53.04 111.75 53.232 112.07 53.616C112.326 53.872 112.454 54.224 112.454 54.672C112.454 54.864 112.422 55.056 112.358 55.248L112.07 56.688C111.942 57.328 111.622 57.84 111.11 58.224C110.662 58.608 110.118 58.8 109.478 58.8H78.0855L72.6135 84.24H106.886C107.526 84.24 108.006 84.432 108.326 84.816C108.582 85.072 108.71 85.424 108.71 85.872C108.71 86.064 108.678 86.256 108.614 86.448L108.326 87.888C108.198 88.528 107.878 89.04 107.366 89.424C106.918 89.808 106.374 90 105.734 90H67.5255ZM124.244 90C123.604 90 123.124 89.808 122.804 89.424C122.548 89.168 122.42 88.816 122.42 88.368C122.42 88.24 122.452 88.08 122.516 87.888L135.86 25.008C135.988 24.368 136.276 23.856 136.724 23.472C137.236 23.024 137.812 22.8 138.452 22.8H161.3C167.38 22.8 172.052 24.048 175.316 26.544C178.58 29.04 180.212 32.656 180.212 37.392C180.212 38.992 180.02 40.752 179.636 42.672C178.228 49.136 175.316 54.064 170.9 57.456C166.484 60.848 160.82 62.544 153.908 62.544H133.94L128.564 87.888C128.436 88.528 128.116 89.04 127.604 89.424C127.156 89.808 126.612 90 125.972 90H124.244ZM153.428 56.784C158.74 56.784 163.188 55.568 166.772 53.136C170.356 50.64 172.628 47.152 173.588 42.672C174.036 40.432 174.26 38.704 174.26 37.488C174.26 34.416 173.236 32.176 171.188 30.768C169.14 29.296 165.62 28.56 160.628 28.56H141.236L135.188 56.784H153.428ZM198.923 90C198.283 90 197.803 89.808 197.483 89.424C197.227 89.168 197.099 88.816 197.099 88.368C197.099 88.24 197.131 88.08 197.195 87.888L209.867 28.56H190.859C190.219 28.56 189.739 28.368 189.419 27.984C189.163 27.728 189.035 27.376 189.035 26.928C189.035 26.8 189.067 26.64 189.131 26.448L189.419 25.008C189.547 24.368 189.835 23.856 190.283 23.472C190.795 23.024 191.371 22.8 192.011 22.8H235.979C236.619 22.8 237.099 22.992 237.419 23.376C237.675 23.632 237.803 23.984 237.803 24.432C237.803 24.624 237.771 24.816 237.707 25.008L237.419 26.448C237.291 27.088 236.971 27.6 236.459 27.984C236.011 28.368 235.467 28.56 234.827 28.56H215.915L203.243 87.888C203.115 88.528 202.795 89.04 202.283 89.424C201.835 89.808 201.291 90 200.651 90H198.923ZM237.494 90C236.854 90 236.374 89.808 236.054 89.424C235.798 89.168 235.67 88.816 235.67 88.368C235.67 88.24 235.702 88.08 235.766 87.888L249.11 25.008C249.238 24.368 249.526 23.856 249.974 23.472C250.486 23.024 251.062 22.8 251.702 22.8H289.142C289.782 22.8 290.262 22.992 290.582 23.376C290.838 23.632 290.966 23.984 290.966 24.432C290.966 24.624 290.934 24.816 290.87 25.008L290.582 26.448C290.454 27.088 290.134 27.6 289.622 27.984C289.174 28.368 288.63 28.56 287.99 28.56H254.486L249.206 53.04H280.598C281.238 53.04 281.718 53.232 282.038 53.616C282.294 53.872 282.422 54.224 282.422 54.672C282.422 54.864 282.39 55.056 282.326 55.248L282.038 56.688C281.91 57.328 281.59 57.84 281.078 58.224C280.63 58.608 280.086 58.8 279.446 58.8H248.054L242.582 84.24H276.854C277.494 84.24 277.974 84.432 278.294 84.816C278.55 85.072 278.678 85.424 278.678 85.872C278.678 86.064 278.646 86.256 278.582 86.448L278.294 87.888C278.166 88.528 277.846 89.04 277.334 89.424C276.886 89.808 276.342 90 275.702 90H237.494ZM313.105 90C312.402 90 311.858 89.776 311.474 89.328C311.09 88.88 310.962 88.304 311.09 87.6L324.338 25.2C324.466 24.496 324.818 23.92 325.394 23.472C325.97 23.024 326.61 22.8 327.314 22.8H337.682C339.218 22.8 340.21 23.504 340.658 24.912L351.122 55.152L374.45 24.912C374.77 24.4 375.218 23.92 375.794 23.472C376.434 23.024 377.202 22.8 378.098 22.8H388.562C389.266 22.8 389.81 23.024 390.194 23.472C390.45 23.856 390.578 24.24 390.578 24.624C390.578 24.816 390.546 25.008 390.482 25.2L377.234 87.6C377.106 88.304 376.754 88.88 376.178 89.328C375.602 89.776 374.994 90 374.354 90H362.738C362.034 90 361.49 89.776 361.106 89.328C360.786 88.816 360.69 88.24 360.818 87.6L368.306 52.176L353.618 71.664C352.978 72.368 352.37 72.912 351.794 73.296C351.218 73.68 350.546 73.872 349.778 73.872H344.786C343.442 73.872 342.514 73.136 342.002 71.664L335.186 51.312L327.506 87.6C327.378 88.304 327.026 88.88 326.45 89.328C325.874 89.776 325.266 90 324.626 90H313.105ZM392.51 90C391.806 90 391.262 89.776 390.878 89.328C390.558 88.816 390.462 88.24 390.59 87.6L403.838 25.2C403.966 24.496 404.318 23.92 404.894 23.472C405.47 23.024 406.078 22.8 406.718 22.8H451.55C452.254 22.8 452.798 23.024 453.182 23.472C453.502 23.792 453.662 24.208 453.662 24.72C453.662 24.848 453.63 25.008 453.566 25.2L451.646 34.224C451.454 34.928 451.07 35.504 450.494 35.952C449.982 36.4 449.374 36.624 448.67 36.624H418.142L415.262 49.584H443.774C444.478 49.584 445.022 49.808 445.406 50.256C445.662 50.64 445.79 51.056 445.79 51.504C445.79 51.696 445.758 51.888 445.694 52.08L443.87 60.432C443.742 61.136 443.39 61.712 442.814 62.16C442.238 62.608 441.63 62.832 440.99 62.832H412.478L409.694 76.176H440.99C441.694 76.176 442.238 76.4 442.622 76.848C442.878 77.168 443.006 77.552 443.006 78C443.006 78.192 442.974 78.384 442.91 78.576L440.99 87.6C440.862 88.304 440.51 88.88 439.934 89.328C439.422 89.776 438.814 90 438.11 90H392.51ZM453.728 90C453.024 90 452.48 89.776 452.096 89.328C451.776 88.816 451.68 88.24 451.808 87.6L465.056 25.2C465.184 24.496 465.536 23.92 466.112 23.472C466.688 23.024 467.296 22.8 467.936 22.8H478.112C479.648 22.8 480.608 23.408 480.992 24.624L496.64 61.776L504.416 25.2C504.544 24.496 504.896 23.92 505.472 23.472C506.048 23.024 506.656 22.8 507.296 22.8H518.816C519.52 22.8 520.064 23.024 520.448 23.472C520.768 23.792 520.928 24.208 520.928 24.72C520.928 24.848 520.896 25.008 520.832 25.2L507.488 87.504C507.36 88.208 507.008 88.816 506.432 89.328C505.92 89.776 505.312 90 504.608 90H494.432C493.536 90 492.896 89.84 492.512 89.52C492.128 89.136 491.808 88.688 491.552 88.176L475.712 52.368L468.224 87.6C468.096 88.304 467.744 88.88 467.168 89.328C466.592 89.776 465.952 90 465.248 90H453.728ZM549.702 90.96C542.15 90.96 536.038 89.296 531.366 85.968C526.758 82.576 524.454 77.584 524.454 70.992C524.454 69.136 524.71 66.928 525.222 64.368L533.478 25.2C533.606 24.496 533.958 23.92 534.534 23.472C535.11 23.024 535.75 22.8 536.454 22.8H548.838C549.542 22.8 550.086 23.024 550.47 23.472C550.726 23.856 550.854 24.24 550.854 24.624C550.854 24.816 550.822 25.008 550.758 25.2L542.406 64.272C542.086 65.616 541.926 67.12 541.926 68.784C541.926 71.472 542.662 73.488 544.134 74.832C545.606 76.112 547.878 76.752 550.95 76.752C554.79 76.752 557.926 75.728 560.358 73.68C562.79 71.568 564.454 68.432 565.35 64.272L573.702 25.2C573.83 24.496 574.182 23.92 574.758 23.472C575.334 23.024 575.942 22.8 576.582 22.8H588.966C589.67 22.8 590.214 23.024 590.598 23.472C590.918 23.792 591.078 24.208 591.078 24.72C591.078 24.848 591.046 25.008 590.982 25.2L582.63 64.368C580.646 73.52 576.998 80.24 571.686 84.528C566.438 88.816 559.11 90.96 549.702 90.96ZM547.494 18C546.854 18 546.374 17.776 546.054 17.328C545.798 17.072 545.67 16.72 545.67 16.272C545.67 16.144 545.702 15.984 545.766 15.792L547.59 7.056C547.718 6.416 548.038 5.904 548.55 5.51999C549.062 5.072 549.638 4.848 550.278 4.848H559.11C559.75 4.848 560.23 5.04 560.55 5.424C560.806 5.744 560.934 6.128 560.934 6.576C560.934 6.704 560.902 6.864 560.838 7.056L558.918 15.792C558.79 16.432 558.47 16.976 557.958 17.424C557.446 17.808 556.87 18 556.23 18H547.494ZM570.15 18C569.51 18 569.03 17.776 568.71 17.328C568.518 17.072 568.422 16.752 568.422 16.368C568.422 16.176 568.454 15.984 568.518 15.792L570.342 7.056C570.47 6.416 570.79 5.904 571.302 5.51999C571.814 5.072 572.39 4.848 573.03 4.848H581.766C582.406 4.848 582.886 5.04 583.206 5.424C583.462 5.744 583.59 6.128 583.59 6.576C583.59 6.704 583.558 6.864 583.494 7.056L581.67 15.792C581.542 16.432 581.222 16.976 580.71 17.424C580.198 17.808 579.622 18 578.982 18H570.15Z" fill="#E91D22"/>
</svg>
